<mxfile host="drawio-plugin" modified="2024-08-21T12:39:45.803Z" agent="Mozilla/5.0 (Windows NT 10.0; Win64; x64) AppleWebKit/537.36 (KHTML, like Gecko) Chrome/122.0.0.0 Safari/537.36" etag="xaAVi7zbzZCiCdPUcVUM" version="22.1.22" type="embed">
  <diagram name="Page-1" id="Rxd45JZoh64sPUJfa_ve">
    <mxGraphModel dx="299" dy="2749" grid="0" gridSize="10" guides="1" tooltips="1" connect="1" arrows="1" fold="1" page="0" pageScale="1" pageWidth="827" pageHeight="1169" background="none" math="0" shadow="0">
      <root>
        <mxCell id="0" />
        <mxCell id="1" parent="0" />
        <mxCell id="8laq0RoM2ey0Ij8nhhd4-25" value="Utilisateur" style="shape=umlActor;verticalLabelPosition=bottom;verticalAlign=top;html=1;" parent="1" vertex="1">
          <mxGeometry x="58" y="-763" width="30" height="60" as="geometry" />
        </mxCell>
        <mxCell id="8laq0RoM2ey0Ij8nhhd4-28" value="Laisser un commentaire" style="swimlane;whiteSpace=wrap;html=1;" parent="1" vertex="1">
          <mxGeometry x="170" y="-920" width="500" height="350" as="geometry">
            <mxRectangle x="140" y="-50" width="190" height="30" as="alternateBounds" />
          </mxGeometry>
        </mxCell>
        <mxCell id="8laq0RoM2ey0Ij8nhhd4-34" value="Se connecter" style="ellipse;whiteSpace=wrap;html=1;fillColor=#a20025;fontColor=#ffffff;strokeColor=#6F0000;" parent="8laq0RoM2ey0Ij8nhhd4-28" vertex="1">
          <mxGeometry x="60" y="245" width="140" height="80" as="geometry" />
        </mxCell>
        <mxCell id="v-ckY8yD7APHbJe-M74S-47" value="&amp;lt;&amp;lt;extend&amp;gt;&amp;gt;" style="html=1;verticalAlign=bottom;labelBackgroundColor=none;endArrow=open;endFill=0;dashed=1;rounded=0;entryX=1;entryY=0.5;entryDx=0;entryDy=0;exitX=0;exitY=0.5;exitDx=0;exitDy=0;" parent="8laq0RoM2ey0Ij8nhhd4-28" source="ynBs6C8RVd4OaE_7h5wW-11" target="ynBs6C8RVd4OaE_7h5wW-7" edge="1">
          <mxGeometry width="160" relative="1" as="geometry">
            <mxPoint x="128" y="461" as="sourcePoint" />
            <mxPoint x="132" y="438" as="targetPoint" />
          </mxGeometry>
        </mxCell>
        <mxCell id="D7e3qFoikxUyCczRgADE-1" value="S&#39;inscrire" style="ellipse;whiteSpace=wrap;html=1;fillColor=#a20025;fontColor=#ffffff;strokeColor=#6F0000;" parent="8laq0RoM2ey0Ij8nhhd4-28" vertex="1">
          <mxGeometry x="58" y="39" width="140" height="80" as="geometry" />
        </mxCell>
        <mxCell id="ynBs6C8RVd4OaE_7h5wW-7" value="Aller sur un tricks" style="ellipse;whiteSpace=wrap;html=1;fillColor=#a20025;fontColor=#ffffff;strokeColor=#6F0000;" parent="8laq0RoM2ey0Ij8nhhd4-28" vertex="1">
          <mxGeometry x="58" y="137" width="140" height="80" as="geometry" />
        </mxCell>
        <mxCell id="ynBs6C8RVd4OaE_7h5wW-10" value="&amp;lt;&amp;lt;include&amp;gt;&amp;gt;" style="html=1;verticalAlign=bottom;labelBackgroundColor=none;endArrow=open;endFill=0;dashed=1;rounded=0;exitX=0;exitY=1;exitDx=0;exitDy=0;entryX=0.5;entryY=0;entryDx=0;entryDy=0;" parent="8laq0RoM2ey0Ij8nhhd4-28" source="ynBs6C8RVd4OaE_7h5wW-11" target="8laq0RoM2ey0Ij8nhhd4-34" edge="1">
          <mxGeometry width="160" relative="1" as="geometry">
            <mxPoint x="210" y="204.5" as="sourcePoint" />
            <mxPoint x="353" y="119" as="targetPoint" />
            <mxPoint as="offset" />
          </mxGeometry>
        </mxCell>
        <mxCell id="ynBs6C8RVd4OaE_7h5wW-11" value="Laisser un commentaire" style="ellipse;whiteSpace=wrap;html=1;fillColor=#a20025;fontColor=#ffffff;strokeColor=#6F0000;" parent="8laq0RoM2ey0Ij8nhhd4-28" vertex="1">
          <mxGeometry x="323" y="137" width="140" height="80" as="geometry" />
        </mxCell>
        <mxCell id="8laq0RoM2ey0Ij8nhhd4-33" value="" style="endArrow=open;endFill=1;endSize=12;html=1;rounded=0;entryX=0;entryY=0.5;entryDx=0;entryDy=0;exitX=1;exitY=0.3333333333333333;exitDx=0;exitDy=0;exitPerimeter=0;" parent="1" source="8laq0RoM2ey0Ij8nhhd4-25" target="8laq0RoM2ey0Ij8nhhd4-34" edge="1">
          <mxGeometry width="160" relative="1" as="geometry">
            <mxPoint x="130" y="-570" as="sourcePoint" />
            <mxPoint x="240" y="-720" as="targetPoint" />
          </mxGeometry>
        </mxCell>
        <mxCell id="D7e3qFoikxUyCczRgADE-2" value="" style="endArrow=open;endFill=1;endSize=12;html=1;rounded=0;entryX=0;entryY=0.5;entryDx=0;entryDy=0;exitX=1;exitY=0.3333333333333333;exitDx=0;exitDy=0;exitPerimeter=0;" parent="1" source="8laq0RoM2ey0Ij8nhhd4-25" target="D7e3qFoikxUyCczRgADE-1" edge="1">
          <mxGeometry width="160" relative="1" as="geometry">
            <mxPoint x="170" y="-740" as="sourcePoint" />
            <mxPoint x="290" y="-670" as="targetPoint" />
          </mxGeometry>
        </mxCell>
        <mxCell id="ynBs6C8RVd4OaE_7h5wW-9" value="" style="endArrow=open;endFill=1;endSize=12;html=1;rounded=0;entryX=0;entryY=0.5;entryDx=0;entryDy=0;exitX=1;exitY=0.3333333333333333;exitDx=0;exitDy=0;exitPerimeter=0;" parent="1" source="8laq0RoM2ey0Ij8nhhd4-25" target="ynBs6C8RVd4OaE_7h5wW-7" edge="1">
          <mxGeometry width="160" relative="1" as="geometry">
            <mxPoint x="-29.5" y="-590" as="sourcePoint" />
            <mxPoint x="119.5" y="-468" as="targetPoint" />
          </mxGeometry>
        </mxCell>
        <mxCell id="ynBs6C8RVd4OaE_7h5wW-23" value="Utilisateur" style="shape=umlActor;verticalLabelPosition=bottom;verticalAlign=top;html=1;" parent="1" vertex="1">
          <mxGeometry x="52" y="-433" width="30" height="60" as="geometry" />
        </mxCell>
        <mxCell id="ynBs6C8RVd4OaE_7h5wW-24" value="" style="endArrow=open;endFill=1;endSize=12;html=1;rounded=0;exitX=1;exitY=0.3333333333333333;exitDx=0;exitDy=0;exitPerimeter=0;entryX=0;entryY=0.5;entryDx=0;entryDy=0;" parent="1" source="ynBs6C8RVd4OaE_7h5wW-23" target="ynBs6C8RVd4OaE_7h5wW-29" edge="1">
          <mxGeometry width="160" relative="1" as="geometry">
            <mxPoint x="375" y="-87" as="sourcePoint" />
            <mxPoint x="475" y="-87" as="targetPoint" />
          </mxGeometry>
        </mxCell>
        <mxCell id="ynBs6C8RVd4OaE_7h5wW-25" value="Gestion des tricks" style="swimlane;whiteSpace=wrap;html=1;" parent="1" vertex="1">
          <mxGeometry x="168" y="-517" width="504" height="354" as="geometry">
            <mxRectangle x="140" y="-50" width="190" height="30" as="alternateBounds" />
          </mxGeometry>
        </mxCell>
        <mxCell id="ynBs6C8RVd4OaE_7h5wW-28" value="Gestion des tricks" style="ellipse;whiteSpace=wrap;html=1;fillColor=#a20025;fontColor=#ffffff;strokeColor=#6F0000;" parent="ynBs6C8RVd4OaE_7h5wW-25" vertex="1">
          <mxGeometry x="46" y="198" width="140" height="80" as="geometry" />
        </mxCell>
        <mxCell id="ynBs6C8RVd4OaE_7h5wW-29" value="Se connecter" style="ellipse;whiteSpace=wrap;html=1;fillColor=#a20025;fontColor=#ffffff;strokeColor=#6F0000;" parent="ynBs6C8RVd4OaE_7h5wW-25" vertex="1">
          <mxGeometry x="46" y="64" width="140" height="80" as="geometry" />
        </mxCell>
        <mxCell id="ynBs6C8RVd4OaE_7h5wW-32" value="CRUD des tricks" style="ellipse;whiteSpace=wrap;html=1;fillColor=#a20025;fontColor=#ffffff;strokeColor=#6F0000;" parent="ynBs6C8RVd4OaE_7h5wW-25" vertex="1">
          <mxGeometry x="339" y="198" width="140" height="75" as="geometry" />
        </mxCell>
        <mxCell id="ynBs6C8RVd4OaE_7h5wW-33" value="&amp;lt;&amp;lt;include&amp;gt;&amp;gt;" style="html=1;verticalAlign=bottom;labelBackgroundColor=none;endArrow=open;endFill=0;dashed=1;rounded=0;exitX=0.5;exitY=1;exitDx=0;exitDy=0;entryX=0.5;entryY=0;entryDx=0;entryDy=0;" parent="ynBs6C8RVd4OaE_7h5wW-25" source="ynBs6C8RVd4OaE_7h5wW-29" target="ynBs6C8RVd4OaE_7h5wW-28" edge="1">
          <mxGeometry width="160" relative="1" as="geometry">
            <mxPoint x="200" y="439.5" as="sourcePoint" />
            <mxPoint x="360" y="439.5" as="targetPoint" />
            <Array as="points" />
          </mxGeometry>
        </mxCell>
        <mxCell id="ynBs6C8RVd4OaE_7h5wW-36" value="&amp;lt;&amp;lt;extend&amp;gt;&amp;gt;" style="html=1;verticalAlign=bottom;labelBackgroundColor=none;endArrow=open;endFill=0;dashed=1;rounded=0;exitX=0;exitY=0.5;exitDx=0;exitDy=0;entryX=1;entryY=0.5;entryDx=0;entryDy=0;" parent="ynBs6C8RVd4OaE_7h5wW-25" source="ynBs6C8RVd4OaE_7h5wW-32" target="ynBs6C8RVd4OaE_7h5wW-28" edge="1">
          <mxGeometry width="160" relative="1" as="geometry">
            <mxPoint x="200" y="230" as="sourcePoint" />
            <mxPoint x="360" y="230" as="targetPoint" />
          </mxGeometry>
        </mxCell>
        <mxCell id="ynBs6C8RVd4OaE_7h5wW-51" value="Utilisateur" style="shape=umlActor;verticalLabelPosition=bottom;verticalAlign=top;html=1;" parent="1" vertex="1">
          <mxGeometry x="50" y="-1637" width="30" height="60" as="geometry" />
        </mxCell>
        <mxCell id="ynBs6C8RVd4OaE_7h5wW-52" value="Inscription&amp;nbsp;" style="swimlane;whiteSpace=wrap;html=1;" parent="1" vertex="1">
          <mxGeometry x="170" y="-1696" width="500" height="682" as="geometry">
            <mxRectangle x="140" y="-50" width="190" height="30" as="alternateBounds" />
          </mxGeometry>
        </mxCell>
        <mxCell id="ynBs6C8RVd4OaE_7h5wW-55" value="Aller sur la page d&#39;inscription" style="ellipse;whiteSpace=wrap;html=1;fillColor=#a20025;fontColor=#ffffff;strokeColor=#6F0000;" parent="ynBs6C8RVd4OaE_7h5wW-52" vertex="1">
          <mxGeometry x="58" y="39" width="140" height="80" as="geometry" />
        </mxCell>
        <mxCell id="ynBs6C8RVd4OaE_7h5wW-56" value="Remplir le formulaire d&#39;inscription" style="ellipse;whiteSpace=wrap;html=1;fillColor=#a20025;fontColor=#ffffff;strokeColor=#6F0000;" parent="ynBs6C8RVd4OaE_7h5wW-52" vertex="1">
          <mxGeometry x="58" y="172" width="140" height="80" as="geometry" />
        </mxCell>
        <mxCell id="ynBs6C8RVd4OaE_7h5wW-62" value="&amp;lt;&amp;lt;extend&amp;gt;&amp;gt;" style="html=1;verticalAlign=bottom;labelBackgroundColor=none;endArrow=open;endFill=0;dashed=1;rounded=0;entryX=0.5;entryY=1;entryDx=0;entryDy=0;exitX=0.5;exitY=0;exitDx=0;exitDy=0;" parent="ynBs6C8RVd4OaE_7h5wW-52" source="ynBs6C8RVd4OaE_7h5wW-56" target="ynBs6C8RVd4OaE_7h5wW-55" edge="1">
          <mxGeometry width="160" relative="1" as="geometry">
            <mxPoint x="344" y="95" as="sourcePoint" />
            <mxPoint x="219" y="95" as="targetPoint" />
          </mxGeometry>
        </mxCell>
        <mxCell id="ynBs6C8RVd4OaE_7h5wW-64" value="Soummettre le &lt;br&gt;formulaire" style="ellipse;whiteSpace=wrap;html=1;fillColor=#a20025;fontColor=#ffffff;strokeColor=#6F0000;" parent="ynBs6C8RVd4OaE_7h5wW-52" vertex="1">
          <mxGeometry x="58" y="318" width="140" height="80" as="geometry" />
        </mxCell>
        <mxCell id="ynBs6C8RVd4OaE_7h5wW-65" value="&amp;lt;&amp;lt;extend&amp;gt;&amp;gt;" style="html=1;verticalAlign=bottom;labelBackgroundColor=none;endArrow=open;endFill=0;dashed=1;rounded=0;entryX=0.5;entryY=1;entryDx=0;entryDy=0;exitX=0.5;exitY=0;exitDx=0;exitDy=0;" parent="ynBs6C8RVd4OaE_7h5wW-52" source="ynBs6C8RVd4OaE_7h5wW-64" target="ynBs6C8RVd4OaE_7h5wW-56" edge="1">
          <mxGeometry width="160" relative="1" as="geometry">
            <mxPoint x="344" y="241" as="sourcePoint" />
            <mxPoint x="128" y="265" as="targetPoint" />
          </mxGeometry>
        </mxCell>
        <mxCell id="ynBs6C8RVd4OaE_7h5wW-66" value="&amp;lt;&amp;lt;include&amp;gt;&amp;gt;" style="html=1;verticalAlign=bottom;labelBackgroundColor=none;endArrow=open;endFill=0;dashed=1;rounded=0;entryX=1;entryY=0.5;entryDx=0;entryDy=0;exitX=0;exitY=0.5;exitDx=0;exitDy=0;" parent="ynBs6C8RVd4OaE_7h5wW-52" source="ynBs6C8RVd4OaE_7h5wW-67" target="ynBs6C8RVd4OaE_7h5wW-64" edge="1">
          <mxGeometry width="160" relative="1" as="geometry">
            <mxPoint x="363" y="342" as="sourcePoint" />
            <mxPoint x="220.9999999999999" y="348.9999999999998" as="targetPoint" />
            <mxPoint as="offset" />
          </mxGeometry>
        </mxCell>
        <mxCell id="ynBs6C8RVd4OaE_7h5wW-67" value="Traitement du formulaire" style="ellipse;whiteSpace=wrap;html=1;fillColor=#a20025;fontColor=#ffffff;strokeColor=#6F0000;" parent="ynBs6C8RVd4OaE_7h5wW-52" vertex="1">
          <mxGeometry x="323" y="318" width="140" height="80" as="geometry" />
        </mxCell>
        <mxCell id="ynBs6C8RVd4OaE_7h5wW-68" value="&amp;lt;&amp;lt;include&amp;gt;&amp;gt;" style="html=1;verticalAlign=bottom;labelBackgroundColor=none;endArrow=open;endFill=0;dashed=1;rounded=0;entryX=0.5;entryY=1;entryDx=0;entryDy=0;exitX=0.5;exitY=0;exitDx=0;exitDy=0;" parent="ynBs6C8RVd4OaE_7h5wW-52" source="ynBs6C8RVd4OaE_7h5wW-69" target="ynBs6C8RVd4OaE_7h5wW-67" edge="1">
          <mxGeometry width="160" relative="1" as="geometry">
            <mxPoint x="357" y="507" as="sourcePoint" />
            <mxPoint x="192" y="523" as="targetPoint" />
            <mxPoint as="offset" />
          </mxGeometry>
        </mxCell>
        <mxCell id="ynBs6C8RVd4OaE_7h5wW-69" value="Envoie de l&#39;email de confirmation" style="ellipse;whiteSpace=wrap;html=1;fillColor=#a20025;fontColor=#ffffff;strokeColor=#6F0000;" parent="ynBs6C8RVd4OaE_7h5wW-52" vertex="1">
          <mxGeometry x="323" y="480" width="140" height="80" as="geometry" />
        </mxCell>
        <mxCell id="ynBs6C8RVd4OaE_7h5wW-60" value="" style="endArrow=open;endFill=1;endSize=12;html=1;rounded=0;entryX=0;entryY=0.5;entryDx=0;entryDy=0;exitX=1;exitY=0.3333333333333333;exitDx=0;exitDy=0;exitPerimeter=0;" parent="1" source="ynBs6C8RVd4OaE_7h5wW-51" target="ynBs6C8RVd4OaE_7h5wW-55" edge="1">
          <mxGeometry width="160" relative="1" as="geometry">
            <mxPoint x="170" y="-1516" as="sourcePoint" />
            <mxPoint x="290" y="-1446" as="targetPoint" />
          </mxGeometry>
        </mxCell>
        <mxCell id="ynBs6C8RVd4OaE_7h5wW-72" value="Administrateur" style="shape=umlActor;verticalLabelPosition=bottom;verticalAlign=top;html=1;" parent="1" vertex="1">
          <mxGeometry x="52" y="-21" width="30" height="60" as="geometry" />
        </mxCell>
        <mxCell id="ynBs6C8RVd4OaE_7h5wW-73" value="" style="endArrow=open;endFill=1;endSize=12;html=1;rounded=0;exitX=1;exitY=0.3333333333333333;exitDx=0;exitDy=0;exitPerimeter=0;entryX=0;entryY=0.5;entryDx=0;entryDy=0;" parent="1" source="ynBs6C8RVd4OaE_7h5wW-72" target="ynBs6C8RVd4OaE_7h5wW-76" edge="1">
          <mxGeometry width="160" relative="1" as="geometry">
            <mxPoint x="375" y="325" as="sourcePoint" />
            <mxPoint x="475" y="325" as="targetPoint" />
          </mxGeometry>
        </mxCell>
        <mxCell id="ynBs6C8RVd4OaE_7h5wW-74" value="Gestion des utilisateurs" style="swimlane;whiteSpace=wrap;html=1;" parent="1" vertex="1">
          <mxGeometry x="168" y="-105" width="504" height="354" as="geometry">
            <mxRectangle x="140" y="-50" width="190" height="30" as="alternateBounds" />
          </mxGeometry>
        </mxCell>
        <mxCell id="ynBs6C8RVd4OaE_7h5wW-75" value="Gestion des utilisateurs" style="ellipse;whiteSpace=wrap;html=1;fillColor=#a20025;fontColor=#ffffff;strokeColor=#6F0000;" parent="ynBs6C8RVd4OaE_7h5wW-74" vertex="1">
          <mxGeometry x="46" y="198" width="140" height="80" as="geometry" />
        </mxCell>
        <mxCell id="ynBs6C8RVd4OaE_7h5wW-76" value="Se connecter" style="ellipse;whiteSpace=wrap;html=1;fillColor=#a20025;fontColor=#ffffff;strokeColor=#6F0000;" parent="ynBs6C8RVd4OaE_7h5wW-74" vertex="1">
          <mxGeometry x="46" y="64" width="140" height="80" as="geometry" />
        </mxCell>
        <mxCell id="ynBs6C8RVd4OaE_7h5wW-77" value="CRUD des utilisateurs" style="ellipse;whiteSpace=wrap;html=1;fillColor=#a20025;fontColor=#ffffff;strokeColor=#6F0000;" parent="ynBs6C8RVd4OaE_7h5wW-74" vertex="1">
          <mxGeometry x="339" y="198" width="140" height="75" as="geometry" />
        </mxCell>
        <mxCell id="ynBs6C8RVd4OaE_7h5wW-78" value="&amp;lt;&amp;lt;include&amp;gt;&amp;gt;" style="html=1;verticalAlign=bottom;labelBackgroundColor=none;endArrow=open;endFill=0;dashed=1;rounded=0;exitX=0.5;exitY=1;exitDx=0;exitDy=0;entryX=0.5;entryY=0;entryDx=0;entryDy=0;" parent="ynBs6C8RVd4OaE_7h5wW-74" source="ynBs6C8RVd4OaE_7h5wW-76" target="ynBs6C8RVd4OaE_7h5wW-75" edge="1">
          <mxGeometry width="160" relative="1" as="geometry">
            <mxPoint x="200" y="439.5" as="sourcePoint" />
            <mxPoint x="360" y="439.5" as="targetPoint" />
            <Array as="points" />
          </mxGeometry>
        </mxCell>
        <mxCell id="ynBs6C8RVd4OaE_7h5wW-79" value="&amp;lt;&amp;lt;extend&amp;gt;&amp;gt;" style="html=1;verticalAlign=bottom;labelBackgroundColor=none;endArrow=open;endFill=0;dashed=1;rounded=0;exitX=0;exitY=0.5;exitDx=0;exitDy=0;entryX=1;entryY=0.5;entryDx=0;entryDy=0;" parent="ynBs6C8RVd4OaE_7h5wW-74" source="ynBs6C8RVd4OaE_7h5wW-77" target="ynBs6C8RVd4OaE_7h5wW-75" edge="1">
          <mxGeometry width="160" relative="1" as="geometry">
            <mxPoint x="200" y="230" as="sourcePoint" />
            <mxPoint x="360" y="230" as="targetPoint" />
          </mxGeometry>
        </mxCell>
      </root>
    </mxGraphModel>
  </diagram>
</mxfile>
